HIERARCHY
ROOT Hips
{
    OFFSET 0.000000 0.000000 0.000000
    CHANNELS 6 Xposition Yposition Zposition Zrotation Xrotation Yrotation
    JOINT Spine
    {
        OFFSET -0.000000 14.517291 0.000000
        CHANNELS 3 Zrotation Xrotation Yrotation
        JOINT Spine1
        {
            OFFSET -0.000000 37.558300 0.000000
            CHANNELS 3 Zrotation Xrotation Yrotation
            JOINT Neck
            {
                OFFSET -0.000000 37.404057 3.400369
                CHANNELS 3 Zrotation Xrotation Yrotation
                JOINT Head
                {
                    OFFSET -0.000000 24.785618 -3.540803
                    CHANNELS 3 Zrotation Xrotation Yrotation
                    End Site
                    {
                        OFFSET -0.000000 35.408028 0.000000
                    }
                }
            }
            JOINT LeftShoulder
            {
                OFFSET 6.992933 33.973492 -0.192664
                CHANNELS 3 Zrotation Xrotation Yrotation
                JOINT LeftArm
                {
                    OFFSET 21.527611 0.000000 0.000000
                    CHANNELS 3 Zrotation Xrotation Yrotation
                    JOINT LeftForeArm
                    {
                        OFFSET 56.353916 0.000000 0.000000
                        CHANNELS 3 Zrotation Xrotation Yrotation
                        JOINT LeftHand
                        {
                            OFFSET 47.774071 0.000000 0.000000
                            CHANNELS 3 Zrotation Xrotation Yrotation
                            End Site
                            {
                                OFFSET 26.556021 0.000000 0.000000
                            }
                        }
                    }
                }
            }
            JOINT RightShoulder
            {
                OFFSET -7.065357 33.973492 -0.192664
                CHANNELS 3 Zrotation Xrotation Yrotation
                JOINT RightArm
                {
                    OFFSET -21.527611 0.000000 0.000000
                    CHANNELS 3 Zrotation Xrotation Yrotation
                    JOINT RightForeArm
                    {
                        OFFSET -56.353916 0.000000 0.000000
                        CHANNELS 3 Zrotation Xrotation Yrotation
                        JOINT RightHand
                        {
                            OFFSET -47.774071 0.000000 0.000000
                            CHANNELS 3 Zrotation Xrotation Yrotation
                            End Site
                            {
                                OFFSET -26.556021 0.000000 0.000000
                            }
                        }
                    }
                }
            }
        }
    }
    JOINT LeftUpLeg
    {
        OFFSET 17.704014 0.000000 0.000000
        CHANNELS 3 Zrotation Xrotation Yrotation
        JOINT LeftLeg
        {
            OFFSET -0.000000 -81.181816 0.000000
            CHANNELS 3 Zrotation Xrotation Yrotation
            JOINT LeftFoot
            {
                OFFSET -0.000000 -62.821102 0.000000
                CHANNELS 3 Zrotation Xrotation Yrotation
                JOINT LeftToeBase
                {
                    OFFSET -0.000000 -11.507608 26.556021
                    CHANNELS 3 Zrotation Xrotation Yrotation
                    End Site
                    {
                        OFFSET -0.000000 0.000000 7.081605
                    }
                }
            }
        }
    }
    JOINT RightUpLeg
    {
        OFFSET -17.704014 0.000000 0.000000
        CHANNELS 3 Zrotation Xrotation Yrotation
        JOINT RightLeg
        {
            OFFSET -0.000000 -81.181816 0.000000
            CHANNELS 3 Zrotation Xrotation Yrotation
            JOINT RightFoot
            {
                OFFSET -0.000000 -62.821102 0.000000
                CHANNELS 3 Zrotation Xrotation Yrotation
                JOINT RightToeBase
                {
                    OFFSET -0.000000 -11.507608 26.556021
                    CHANNELS 3 Zrotation Xrotation Yrotation
                    End Site
                    {
                        OFFSET -0.000000 0.000000 7.081605
                    }
                }
            }
        }
    }
}
MOTION
Frames:    12
Frame Time:    0.008333
6.879964    150.880630    -22.308340    -1.175795    1.558835    1.613404    4.622375    -0.245604    11.575785    -6.418021    -2.243746    3.730137    5.852037    -5.883701    -5.742422    4.525417    10.111439    -6.910676    2.955156    1.965184    -6.753653    -46.717762    15.870724    -33.885738    -6.645212    -15.895371    -127.086205    -0.606259    -28.298681    -1.695588    -16.440163    -2.102258    6.185813    28.463089    -20.706491    75.737152    1.836229    -17.885151    5.432612    9.868850    -14.488749    40.227131    8.100706    -36.185577    -13.956079    -12.676525    22.416962    -14.815643    -12.558455    1.496976    36.444416    0.000000    0.000000    0.000000    1.137713    12.131293    -1.095483    3.039296    22.960388    -0.584684    -2.114582    -32.795612    -9.176261    0.000000    0.000000    0.000000    
6.903884    150.925354    -22.288530    -1.170818    1.558698    1.452266    4.604198    -0.232888    11.660441    -6.417142    -2.213097    3.760274    5.852455    -5.904912    -5.741992    4.565768    10.054881    -6.906923    2.952269    1.958115    -6.713447    -46.711845    15.914709    -33.894119    -6.620182    -15.928864    -127.090591    -0.679423    -28.284077    -1.749535    -16.438128    -2.112299    6.210762    28.455904    -20.716059    75.734314    1.820758    -17.901926    5.433051    9.883735    -14.498821    40.237286    8.204543    -36.112644    -13.705171    -12.634901    22.435226    -14.733402    -12.768236    1.201480    36.470837    0.000000    0.000000    0.000000    1.040977    12.174840    -1.106303    3.106868    22.832588    -0.677208    -1.955197    -32.719978    -9.121572    0.000000    0.000000    0.000000    
6.926239    150.980499    -22.256813    -1.161211    1.544581    1.264274    4.580720    -0.207722    11.756867    -6.417532    -2.181103    3.794563    5.830005    -5.930453    -5.746693    4.637865    10.011340    -6.902860    2.945439    1.958510    -6.675723    -46.709538    15.912072    -33.881836    -6.629602    -15.888416    -127.110840    -0.705107    -28.268892    -1.742887    -16.444138    -2.111619    6.236890    28.484987    -20.740835    75.752708    1.824145    -17.874008    5.428837    9.812068    -14.495793    40.240967    8.309111    -36.015072    -13.424716    -12.573321    22.466766    -14.661500    -12.978634    0.883224    36.492359    0.000000    0.000000    0.000000    0.939754    12.219342    -1.153855    2.657285    22.797575    0.343578    -1.395769    -32.640636    -9.067054    0.000000    0.000000    0.000000    
6.948744    151.043396    -22.229141    -1.156187    1.541188    1.042002    4.561984    -0.183519    11.876399    -6.430267    -2.155930    3.835889    5.835013    -5.924564    -5.753823    4.692370    9.913221    -6.903897    2.968244    1.951532    -6.630305    -46.745312    15.909910    -33.867050    -6.652174    -15.820854    -127.126968    -0.727747    -28.251480    -1.749951    -16.431877    -2.120331    6.267465    28.460468    -20.737095    75.742340    1.800384    -17.865101    5.432169    9.787012    -14.493401    40.254368    8.438934    -35.924286    -13.143870    -12.526035    22.500151    -14.539518    -13.169083    0.567382    36.493080    0.000000    0.000000    0.000000    0.815858    12.263674    -1.228222    2.675882    22.677855    0.320340    -1.271750    -32.479649    -8.902591    0.000000    0.000000    0.000000    
6.974537    151.114761    -22.203197    -1.155301    1.542332    0.796550    4.542522    -0.153086    12.004779    -6.429470    -2.141985    3.879900    5.848599    -5.932216    -5.745729    4.715390    9.831109    -6.893860    2.959574    1.885445    -6.640050    -46.814079    15.870788    -33.727104    -6.682099    -15.685839    -127.165764    -0.702277    -28.192600    -1.744088    -16.416630    -2.123805    6.317406    28.436171    -20.745911    75.731895    1.783599    -17.871302    5.439970    9.801568    -14.492066    40.273209    8.583431    -35.828808    -12.904554    -12.499461    22.512901    -14.370258    -13.340826    0.258309    36.500916    0.000000    0.000000    0.000000    0.674987    12.309669    -1.378106    2.717587    22.537996    0.245254    -0.939368    -32.388023    -8.785242    0.000000    0.000000    0.000000    
7.004896    151.198746    -22.167727    -1.155282    1.546808    0.516856    4.522438    -0.125928    12.155962    -6.433445    -2.122352    3.931675    5.884512    -5.949885    -5.734909    4.715526    9.746819    -6.887218    2.972345    1.903879    -6.561816    -46.852768    15.853279    -33.734573    -6.726428    -15.561235    -127.173279    -0.650009    -28.161106    -1.738802    -16.383127    -2.143501    6.345960    28.433870    -20.755932    75.742249    1.801837    -17.839170    5.448440    9.782127    -14.467181    40.274544    8.740509    -35.722115    -12.683693    -12.468081    22.517912    -14.223167    -13.508680    -0.048703    36.540298    0.000000    0.000000    0.000000    0.505912    12.321088    -1.596715    2.734360    22.365034    0.258160    -0.620626    -32.179352    -8.663695    0.000000    0.000000    0.000000    
7.033108    151.298874    -22.143578    -1.189080    1.554675    0.206009    4.547552    -0.074743    12.342287    -6.451601    -2.125692    3.993936    5.927680    -5.976899    -5.718603    4.696733    9.667713    -6.878117    2.974843    1.916456    -6.515176    -46.886559    15.839749    -33.718193    -6.756809    -15.466641    -127.179871    -0.629135    -28.131607    -1.716459    -16.361631    -2.145024    6.378394    28.434649    -20.785051    75.740173    1.818800    -17.821730    5.456221    9.777316    -14.449986    40.296715    8.951211    -35.622612    -12.439993    -12.457330    22.530458    -14.078732    -13.620522    -0.300309    36.609043    0.000000    0.000000    0.000000    0.351494    12.367416    -1.855792    2.755346    22.206421    0.134669    -0.161648    -31.998531    -8.455794    0.000000    0.000000    0.000000    
7.076102    151.404114    -22.093550    -1.220891    1.580364    -0.158305    4.565412    -0.083733    12.565682    -6.417468    -2.082341    4.071336    5.882646    -6.004177    -5.716704    4.751579    9.599567    -6.862373    2.924793    1.902941    -6.449722    -46.910522    15.863543    -33.682285    -6.774015    -15.388727    -127.182838    -0.589225    -28.093109    -1.667686    -16.384295    -2.141307    6.424398    28.476635    -20.828678    75.752457    1.833772    -17.813349    5.472475    9.783260    -14.438161    40.319195    9.177464    -35.515587    -12.213802    -12.441383    22.533680    -13.944228    -13.700845    -0.544165    36.678738    0.000000    0.000000    0.000000    0.150513    12.453281    -2.292172    3.273082    21.896925    -1.083448    0.043888    -31.796921    -8.025912    0.000000    0.000000    0.000000    
7.110718    151.522644    -22.082523    -1.266326    1.626472    -0.542190    4.578646    -0.044910    12.796799    -6.370265    -2.111186    4.148152    5.827250    -6.044685    -5.708643    4.795027    9.555298    -6.840374    2.852976    1.874592    -6.369794    -46.913048    15.932001    -33.623306    -6.790140    -15.340852    -127.201874    -0.524237    -28.084719    -1.606925    -16.419422    -2.146818    6.490020    28.518387    -20.858824    75.738876    1.833528    -17.812073    5.506505    9.846941    -14.408421    40.383739    9.431950    -35.445530    -11.974679    -12.435220    22.535818    -13.851726    -13.761757    -0.701358    36.792038    0.000000    0.000000    0.000000    -0.049071    12.482644    -2.766902    3.346298    21.659767    -1.345588    0.512183    -31.487185    -7.513698    0.000000    0.000000    0.000000    
7.138430    151.649445    -22.072689    -1.345996    1.673461    -0.939124    4.631020    0.005189    13.029541    -6.356510    -2.161686    4.223852    5.829566    -6.074771    -5.685879    4.818943    9.512272    -6.815409    2.833741    1.887255    -6.289724    -46.962021    15.929948    -33.576748    -6.813644    -15.216465    -127.202805    -0.515604    -28.013927    -1.584226    -16.398415    -2.130239    6.562675    28.534170    -20.892487    75.731621    1.827951    -17.803425    5.554464    9.891148    -14.386618    40.358688    9.722141    -35.377167    -11.767408    -12.437018    22.532072    -13.769098    -13.806440    -0.815624    36.935207    0.000000    0.000000    0.000000    -0.203173    12.504247    -3.355470    3.396990    21.427502    -1.520646    1.005476    -31.234024    -7.235649    0.000000    0.000000    0.000000    
7.170795    151.786667    -22.060390    -1.437537    1.716738    -1.384090    4.709295    0.066772    13.296749    -6.360541    -2.205340    4.311290    5.817327    -6.106610    -5.664328    4.861392    9.456822    -6.787176    2.830787    1.906536    -6.236704    -47.018761    15.912333    -33.516754    -6.857810    -15.090680    -127.228516    -0.440834    -27.986874    -1.513805    -16.376680    -2.140226    6.643077    28.607162    -20.950163    75.732971    1.863148    -17.794790    5.604007    9.857043    -14.394272    40.340134    10.049147    -35.293346    -11.543221    -12.444896    22.539850    -13.692635    -13.811637    -0.910394    37.060482    0.000000    0.000000    0.000000    -0.408035    12.575625    -3.831627    3.567410    21.117373    -1.777634    1.675301    -30.947105    -6.825726    0.000000    0.000000    0.000000    
7.192646    151.923630    -22.071871    -1.542506    1.784654    -1.855684    4.785683    0.137480    13.561530    -6.366809    -2.261457    4.397306    5.864704    -6.164099    -5.617970    4.831743    9.385134    -6.750149    2.847412    1.879362    -6.122290    -47.114403    15.878016    -33.454689    -6.926207    -14.877852    -127.245308    -0.433099    -27.920942    -1.510917    -16.331722    -2.182174    6.726716    28.628635    -20.971069    75.720047    1.870352    -17.811993    5.680569    9.839412    -14.419956    40.336987    10.410515    -35.236927    -11.301314    -12.450593    22.549454    -13.613368    -13.814450    -0.985590    37.171333    0.000000    0.000000    0.000000    -0.554801    12.564787    -4.475457    3.567284    20.938749    -1.757564    2.233440    -30.688517    -6.690308    0.000000    0.000000    0.000000    
